<?xml version="1.0" encoding="UTF-8"?>
<svg width="30px" height="28px" viewBox="0 0 30 28" version="1.1" xmlns="http://www.w3.org/2000/svg" xmlns:xlink="http://www.w3.org/1999/xlink">
    <g id="Screens" stroke="none" stroke-width="1" fill="none" fill-rule="evenodd" opacity="0.242722284">
        <g id="Homepage" transform="translate(-335.000000, -140.000000)" fill="#FFFFFF">
            <g id="Feed" transform="translate(325.000000, 134.000000)">
                <g id="LogoHP" transform="translate(10.000000, 6.000000)">
                    <g id="Iso">
                        <polygon id="Fill-1" points="0.101818822 0.139233831 0.101818822 4.48285572 1.52908709 4.48285572 1.52908709 23.585403 0.101818822 23.585403 0.101818822 27.9290249 7.6614596 27.9290249 7.6614596 23.585403 6.06109796 23.585403 6.06109796 4.48285572 7.6614596 4.48285572 7.6614596 0.139233831"></polygon>
                        <polygon id="Fill-2" points="11.9091653 0.139233831 11.9091653 4.48285572 13.4475907 4.48285572 13.4475907 11.8104975 7.9207715 11.8104975 7.0581759 16.1539801 13.4475907 16.1539801 13.4475907 23.585403 11.9091653 23.585403 11.9091653 27.9290249 19.4686693 27.9290249 19.4686693 23.585403 17.9887621 23.585403 17.9887621 4.48285572 25.3754462 4.48285572 25.3754462 11.8104975 19.8486271 11.8104975 18.9858947 16.1539801 27.63359 16.1539801 29.8393682 14.0325274 29.8393682 2.25748259 27.6244294 0.139233831"></polygon>
                        <polygon id="Fill-3" points="27.3075155 23.7352935 26.5160167 21.1546965 25.7245178 23.7352935 23.1916943 24.5417214 25.7245178 25.3481493 26.5160167 27.9287463 27.3075155 25.3481493 29.840339 24.5417214"></polygon>
                    </g>
                </g>
            </g>
        </g>
    </g>
</svg>