<?xml version="1.0" encoding="UTF-8"?>
<svg width="131px" height="50px" viewBox="0 0 131 50" version="1.1" xmlns="http://www.w3.org/2000/svg" xmlns:xlink="http://www.w3.org/1999/xlink">
    <!-- Generator: Sketch 52 (66869) - http://www.bohemiancoding.com/sketch -->
    <title>Logo</title>
    <desc>Created with Sketch.</desc>
    <g id="Screens" stroke="none" stroke-width="1" fill="none" fill-rule="evenodd">
        <g id="Public-User-Profile" transform="translate(-80.000000, 0.000000)">
            <g id="Navbar">
                <g id="Logo" transform="translate(80.000000, 0.000000)">
                    <polygon id="Rectangle" fill="#1C2A5E" points="39 0 130.507812 0 100.507812 50 9 50"></polygon>
                    <polygon id="Rectangle" fill="#FF4300" points="30 0 37.5078125 0 7.5078125 50 0 50"></polygon>
                    <polygon id="Rectangle" fill="#FFFFFF" points="40 0 37.5078125 0 7.5078125 50 10 50"></polygon>
                    <g id="LogoHP" transform="translate(55.000000, 13.000000)" fill="#FFFFFF">
                        <g id="Iso">
                            <polygon id="Fill-1" points="0.088242979 0.119343284 0.088242979 3.84244776 1.32520882 3.84244776 1.32520882 20.2160597 0.088242979 20.2160597 0.088242979 23.9391642 6.63993165 23.9391642 6.63993165 20.2160597 5.25295157 20.2160597 5.25295157 3.84244776 6.63993165 3.84244776 6.63993165 0.119343284"></polygon>
                            <polygon id="Fill-2" points="10.3212766 0.119343284 10.3212766 3.84244776 11.6545786 3.84244776 11.6545786 10.1232836 6.86466864 10.1232836 6.11708578 13.8462687 11.6545786 13.8462687 11.6545786 20.2160597 10.3212766 20.2160597 10.3212766 23.9391642 16.8728468 23.9391642 16.8728468 20.2160597 15.5902605 20.2160597 15.5902605 3.84244776 21.9920534 3.84244776 21.9920534 10.1232836 17.2021434 10.1232836 16.4544421 13.8462687 23.9491113 13.8462687 25.8607858 12.0278806 25.8607858 1.93498507 23.9411722 0.119343284"></polygon>
                            <polygon id="Fill-3" points="23.6665134 20.3445373 22.9805478 18.132597 22.2945821 20.3445373 20.0994684 21.0357612 22.2945821 21.7269851 22.9805478 23.9389254 23.6665134 21.7269851 25.8616271 21.0357612"></polygon>
                        </g>
                    </g>
                </g>
            </g>
        </g>
    </g>
</svg>