<?xml version="1.0" standalone="no"?>
<!DOCTYPE svg PUBLIC "-//W3C//DTD SVG 20010904//EN"
 "http://www.w3.org/TR/2001/REC-SVG-20010904/DTD/svg10.dtd">
<svg version="1.0" xmlns="http://www.w3.org/2000/svg"
 width="960.000000pt" height="960.000000pt" viewBox="0 0 960.000000 960.000000"
 preserveAspectRatio="xMidYMid meet">
<metadata>
Created by potrace 1.11, written by Peter Selinger 2001-2013
</metadata>
<g transform="translate(0.000000,960.000000) scale(0.100000,-0.100000)"
fill="#000000" stroke="none">
<path d="M36 9220 c-2 -8 -3 -321 -3 -695 l2 -679 220 -2 c121 -1 223 -2 228
-3 4 0 6 -1375 5 -3053 l-3 -3053 -225 -1 -225 -1 -1 -695 -1 -694 1209 0
1208 0 0 30 c0 17 2 329 3 694 2 656 2 662 -18 663 -11 0 -126 1 -257 2 l-236
0 -4 34 c-2 18 -1 33 4 33 4 0 5 7 1 17 -8 21 -8 77 0 90 4 6 4 19 0 29 -8 21
-8 82 -1 90 4 3 2 19 -2 35 -5 16 -5 31 0 34 5 3 5 19 0 35 -5 17 -5 30 0 30
5 0 7 7 3 17 -8 20 -8 81 -1 89 4 3 2 19 -2 35 -5 16 -5 31 0 34 5 3 5 19 0
35 -5 17 -5 30 0 30 5 0 7 7 3 17 -8 21 -8 81 0 89 3 4 2 15 -3 25 -7 11 -7
20 0 24 5 3 6 13 3 22 -8 20 -8 81 -1 89 4 3 2 19 -2 35 -5 16 -5 31 0 34 5 3
5 19 0 35 -5 17 -5 30 0 30 5 0 7 7 3 17 -8 20 -8 81 -1 89 4 3 2 19 -2 35 -5
16 -5 31 0 34 5 3 5 19 0 35 -5 17 -5 30 0 30 5 0 7 7 3 17 -6 14 -7 71 -3 91
2 7 1 50 -2 114 -1 21 1 40 4 44 4 3 2 19 -2 35 -5 16 -5 31 0 34 5 3 5 19 0
35 -5 17 -5 30 0 30 5 0 7 7 3 17 -8 20 -8 81 -1 89 4 3 2 19 -2 35 -5 16 -5
31 0 34 5 3 5 19 0 35 -5 17 -5 30 0 30 5 0 7 7 3 17 -8 21 -8 81 0 89 3 4 2
15 -3 25 -7 11 -7 20 0 24 5 3 6 13 3 22 -8 20 -8 81 -1 89 4 3 2 19 -2 35 -5
16 -5 31 0 34 5 3 5 19 0 35 -5 17 -5 30 0 30 5 0 7 7 3 17 -8 20 -8 81 -1 89
4 3 2 19 -2 35 -5 16 -5 31 0 34 5 3 5 19 0 35 -5 17 -5 30 0 30 5 0 7 7 3 17
-8 20 -8 81 -1 89 4 3 2 19 -2 35 -5 16 -5 31 0 34 5 3 5 19 0 35 -5 17 -5 30
0 30 5 0 7 7 3 17 -8 20 -8 81 -1 89 4 3 2 19 -2 35 -5 16 -5 31 0 34 5 3 5
19 0 35 -5 17 -5 30 0 30 5 0 7 7 3 17 -8 20 -8 81 -1 89 4 3 2 19 -2 35 -5
16 -5 31 0 34 5 3 5 19 0 35 -5 17 -5 30 0 30 5 0 7 7 3 17 -8 20 -8 81 -1 89
4 3 2 19 -2 35 -5 16 -5 31 0 34 5 3 5 19 0 35 -5 17 -5 30 0 30 5 0 7 7 3 17
-8 20 -8 81 -1 89 4 3 2 19 -2 35 -5 16 -5 31 0 34 5 3 5 19 0 35 -5 19 -5 30
1 30 6 0 7 5 4 11 -10 14 -12 109 -3 109 4 0 5 7 1 17 -7 18 -9 81 -2 87 2 2
2 154 -1 336 -3 183 -2 334 2 336 3 2 3 18 -2 34 -5 17 -5 30 0 30 5 0 7 7 3
17 -8 20 -8 81 -1 89 4 3 2 19 -2 35 -5 16 -5 31 0 34 5 3 5 19 0 35 -5 17 -5
30 0 30 5 0 7 7 3 17 -8 20 -8 81 -1 89 4 3 2 19 -2 35 -5 16 -5 31 0 34 5 3
5 19 0 35 -5 17 -5 30 0 30 5 0 7 7 3 17 -8 20 -8 81 -1 89 4 3 2 19 -2 35 -5
16 -5 31 0 34 5 3 5 19 0 35 -5 17 -5 30 0 30 5 0 7 7 3 17 -8 20 -8 81 -1 89
4 3 2 19 -2 35 -5 16 -5 31 0 34 5 3 5 19 0 35 -5 19 -5 30 1 30 6 0 7 5 4 11
-10 14 -12 109 -3 109 4 0 5 7 1 17 -5 14 -7 68 -3 91 0 4 2 45 3 92 l2 85
245 1 c135 1 250 2 255 3 7 1 9 208 8 604 -1 331 -3 643 -3 692 l0 90 -1205 0
c-1066 0 -1206 -2 -1209 -15z"/>
<path d="M3814 9225 c-2 -5 -2 -318 -1 -695 l2 -684 243 0 c133 0 242 -2 243
-5 0 -3 2 -531 2 -1174 l2 -1167 -886 0 -886 0 -17 -92 c-10 -51 -20 -104 -22
-118 -2 -14 -7 -36 -10 -50 -8 -33 -13 -59 -20 -95 -3 -16 -10 -50 -15 -75 -6
-25 -12 -58 -14 -74 -3 -15 -7 -35 -9 -45 -3 -9 -8 -32 -11 -51 -3 -19 -10
-55 -15 -80 -12 -51 -39 -190 -47 -235 -8 -43 -11 -60 -13 -60 -1 0 -3 -11 -5
-25 -8 -55 -14 -90 -24 -127 -5 -21 -12 -55 -15 -77 -4 -21 -9 -42 -12 -47 -3
-5 -7 -28 -9 -52 -2 -23 -7 -52 -11 -64 l-6 -23 1023 0 1024 0 -2 -1182 c0
-651 -2 -1186 -2 -1189 -1 -4 -107 -6 -236 -5 -157 1 -240 -3 -250 -10 -8 -6
-12 -13 -9 -17 3 -3 6 -310 7 -684 l2 -678 1208 -1 1207 0 -2 695 -3 695 -232
-1 c-162 0 -233 3 -234 11 -1 6 -2 1380 -3 3053 -1 2021 2 3044 9 3046 20 7
2343 2 2350 -5 6 -5 7 -89 4 -213 -1 -5 0 -35 0 -65 0 -30 0 -62 0 -70 0 -8 0
-193 0 -410 0 -217 0 -402 0 -410 -1 -8 0 -40 0 -70 0 -30 0 -64 0 -75 -2
-128 0 -883 3 -904 0 -3 0 -32 -1 -63 l-1 -58 -884 0 -884 0 -6 -27 c-8 -37
-16 -79 -42 -218 -3 -16 -10 -48 -15 -70 -5 -22 -12 -53 -14 -70 -3 -16 -7
-41 -10 -55 -3 -14 -10 -47 -15 -75 -4 -27 -11 -57 -14 -65 -3 -8 -7 -32 -10
-52 -3 -21 -10 -57 -15 -80 -6 -24 -13 -59 -16 -78 -3 -19 -13 -64 -21 -100
-8 -36 -16 -81 -18 -100 -3 -19 -5 -35 -6 -35 -3 0 -26 -111 -35 -170 -3 -16
-8 -41 -12 -55 -4 -14 -8 -32 -9 -40 -1 -8 -5 -34 -8 -57 l-7 -43 1383 0
c1305 0 1384 1 1399 18 9 9 93 91 188 182 95 91 225 216 289 278 64 61 117
112 119 112 1 0 22 21 47 46 l45 46 0 1883 0 1882 -102 98 c-56 53 -178 170
-271 259 -93 88 -195 186 -226 216 -31 30 -69 66 -84 80 l-28 25 -2510 0
c-1677 0 -2512 -3 -2514 -10z"/>
<path d="M8464 2444 c-10 -33 -19 -63 -20 -69 -1 -5 -14 -48 -29 -95 -15 -47
-28 -89 -30 -95 -1 -5 -12 -44 -25 -85 -14 -41 -25 -78 -26 -82 -1 -5 -3 -10
-4 -13 -1 -3 -4 -9 -5 -15 -1 -5 -3 -11 -5 -12 -1 -2 -3 -10 -5 -18 -2 -8 -20
-69 -41 -135 -20 -66 -37 -126 -37 -132 0 -7 -6 -13 -13 -13 -7 0 -59 -15
-116 -34 -57 -19 -152 -50 -213 -69 -422 -134 -467 -150 -454 -157 7 -5 17 -6
21 -4 4 3 8 1 8 -4 0 -5 6 -9 13 -9 13 0 286 -84 347 -108 19 -7 38 -13 43
-13 4 0 58 -17 120 -37 61 -20 119 -39 127 -41 8 -3 16 -5 18 -5 1 1 18 -5 37
-13 19 -8 35 -12 35 -9 0 16 29 -22 35 -45 10 -42 66 -227 109 -357 9 -27 18
-59 20 -70 2 -11 11 -40 19 -65 17 -51 57 -182 77 -250 l13 -45 30 90 c16 50
30 95 31 100 1 6 6 24 12 40 13 33 45 143 44 147 0 2 10 35 24 75 13 39 22 74
18 77 -3 3 -1 6 5 6 5 0 10 6 10 13 0 6 11 46 23 87 13 41 24 77 25 80 0 3 4
11 8 18 5 6 6 12 4 12 -10 0 22 75 35 82 11 6 237 78 263 84 6 1 51 16 102 33
51 17 99 31 108 31 8 0 15 4 15 8 0 5 6 9 13 9 7 0 75 19 150 44 132 42 137
44 110 56 -29 12 -317 105 -341 109 -8 1 -21 6 -30 10 -9 4 -22 8 -29 10 -27
5 -340 107 -360 116 -11 6 -23 20 -26 32 -9 34 -24 86 -45 156 -11 36 -32 106
-47 155 -14 50 -30 99 -35 110 -4 11 -10 29 -13 40 -3 11 -24 81 -47 155 -23
74 -42 140 -44 147 -6 31 -16 20 -32 -33z"/>
</g>
</svg>
